<?xml version="1.0" encoding="UTF-8" standalone="no"?><!DOCTYPE svg PUBLIC "-//W3C//DTD SVG 1.1//EN" "http://www.w3.org/Graphics/SVG/1.1/DTD/svg11.dtd"><svg width="100%" height="100%" viewBox="0 0 499 167" version="1.1" xmlns="http://www.w3.org/2000/svg" xmlns:xlink="http://www.w3.org/1999/xlink" xml:space="preserve" xmlns:serif="http://www.serif.com/" style="fill-rule:evenodd;clip-rule:evenodd;stroke-miterlimit:10;"><g><g><g><path d="M458.895,0l-419.167,0c-1.528,0 -3.038,0 -4.562,0.008c-1.275,0.009 -2.541,0.033 -3.828,0.053c-2.798,0.033 -5.59,0.279 -8.35,0.737c-2.757,0.467 -5.427,1.347 -7.92,2.612c-2.491,1.275 -4.767,2.932 -6.745,4.911c-1.988,1.973 -3.646,4.254 -4.909,6.755c-1.266,2.495 -2.145,5.17 -2.604,7.93c-0.464,2.757 -0.714,5.546 -0.747,8.342c-0.039,1.277 -0.043,2.559 -0.063,3.837l0,96.309c0.02,1.294 0.024,2.547 0.063,3.841c0.033,2.796 0.283,5.585 0.747,8.342c0.458,2.762 1.336,5.438 2.604,7.934c1.262,2.493 2.92,4.764 4.909,6.726c1.971,1.988 4.248,3.646 6.745,4.912c2.493,1.268 5.163,2.154 7.92,2.628c2.761,0.454 5.552,0.7 8.35,0.737c1.287,0.028 2.553,0.044 3.828,0.044c1.524,0.009 3.034,0.009 4.562,0.009l419.167,-0c1.497,-0 3.019,-0 4.517,-0.009c1.269,0 2.571,-0.016 3.841,-0.044c2.792,-0.035 5.578,-0.281 8.333,-0.737c2.766,-0.478 5.445,-1.363 7.951,-2.628c2.494,-1.266 4.769,-2.925 6.738,-4.911c1.984,-1.97 3.646,-4.24 4.924,-6.727c1.258,-2.498 2.128,-5.174 2.579,-7.934c0.465,-2.758 0.723,-5.546 0.774,-8.342c0.016,-1.294 0.016,-2.547 0.016,-3.841c0.032,-1.514 0.032,-3.019 0.032,-4.557l0,-87.203c0,-1.526 0,-3.04 -0.032,-4.549c-0,-1.278 -0,-2.56 -0.016,-3.837c-0.051,-2.796 -0.309,-5.585 -0.774,-8.342c-0.453,-2.759 -1.322,-5.433 -2.579,-7.93c-2.572,-5.012 -6.652,-9.093 -11.662,-11.666c-2.506,-1.262 -5.185,-2.142 -7.951,-2.613c-2.755,-0.459 -5.541,-0.705 -8.333,-0.736c-1.27,-0.021 -2.572,-0.045 -3.841,-0.053c-1.498,-0.009 -3.02,-0.009 -4.517,-0.009l-0,0.001Z" style="fill:#a6a6a6;fill-rule:nonzero;"/><path d="M35.187,163.021c-1.27,-0 -2.509,-0.016 -3.768,-0.045c-2.609,-0.034 -5.212,-0.261 -7.788,-0.679c-2.402,-0.414 -4.728,-1.183 -6.903,-2.283c-2.155,-1.091 -4.12,-2.521 -5.821,-4.236c-1.725,-1.695 -3.162,-3.66 -4.252,-5.819c-1.103,-2.172 -1.866,-4.501 -2.263,-6.905c-0.428,-2.583 -0.66,-5.194 -0.693,-7.812c-0.027,-0.879 -0.061,-3.805 -0.061,-3.805l-0,-96.252c-0,-0 0.036,-2.881 0.061,-3.728c0.032,-2.613 0.262,-5.221 0.689,-7.8c0.398,-2.41 1.162,-4.746 2.265,-6.925c1.086,-2.157 2.515,-4.124 4.23,-5.825c1.713,-1.717 3.684,-3.154 5.843,-4.26c2.169,-1.097 4.492,-1.861 6.889,-2.267c2.584,-0.422 5.196,-0.651 7.814,-0.683l3.76,-0.051l428.202,-0l3.805,0.053c2.594,0.031 5.183,0.257 7.743,0.677c2.421,0.411 4.768,1.181 6.962,2.283c4.324,2.228 7.843,5.755 10.063,10.083c1.085,2.165 1.837,4.481 2.23,6.87c0.432,2.6 0.674,5.229 0.724,7.864c0.012,1.18 0.012,2.447 0.012,3.709c0.033,1.562 0.033,3.049 0.033,4.549l-0,87.203c-0,1.513 -0,2.99 -0.033,4.48c-0,1.355 -0,2.596 -0.016,3.873c-0.049,2.589 -0.287,5.17 -0.712,7.723c-0.389,2.421 -1.148,4.768 -2.25,6.959c-1.099,2.135 -2.527,4.083 -4.232,5.773c-1.702,1.725 -3.671,3.163 -5.831,4.261c-2.188,1.108 -4.531,1.88 -6.95,2.291c-2.575,0.42 -5.179,0.648 -7.788,0.679c-1.221,0.029 -2.499,0.045 -3.739,0.045l-4.517,0.008l-423.708,-0.008Z" style="fill-rule:nonzero;"/></g></g><path d="M250.279,88.617c-9.393,-0 -16.83,7.044 -16.83,16.829c0,9.393 7.437,16.829 16.83,16.829c9.393,0 16.829,-7.045 16.829,-16.829c-0,-10.176 -7.436,-16.829 -16.829,-16.829Zm-0,26.613c-5.088,0 -9.393,-4.305 -9.393,-10.175c-0,-5.871 4.305,-10.176 9.393,-10.176c5.088,-0 9.393,3.914 9.393,10.176c-0,5.87 -4.305,10.175 -9.393,10.175Zm-36.399,-26.613c-9.393,-0 -16.829,7.044 -16.829,16.829c0,9.393 7.436,16.829 16.829,16.829c9.393,0 16.83,-7.045 16.83,-16.829c-0,-10.176 -7.437,-16.829 -16.83,-16.829Zm0,26.613c-5.088,0 -9.393,-4.305 -9.393,-10.175c0,-5.871 4.305,-10.176 9.393,-10.176c5.088,-0 9.393,3.914 9.393,10.176c0,5.87 -4.305,10.175 -9.393,10.175Zm-43.443,-21.525l0,7.044l16.83,0c-0.392,3.914 -1.957,7.045 -3.914,9.002c-2.348,2.348 -6.262,5.088 -12.916,5.088c-10.567,0 -18.394,-8.219 -18.394,-18.786c-0,-10.567 8.218,-18.786 18.394,-18.786c5.48,-0 9.785,2.348 12.916,5.088l5.088,-5.088c-4.305,-3.914 -9.785,-7.045 -17.612,-7.045c-14.09,-0 -26.223,11.741 -26.223,25.831c0,14.09 12.133,25.831 26.223,25.831c7.827,-0 13.307,-2.348 18.003,-7.436c4.697,-4.697 6.262,-11.35 6.262,-16.438c0,-1.566 0,-3.131 -0.391,-4.305l-24.266,-0Zm177.686,5.479c-1.565,-3.914 -5.479,-10.567 -14.089,-10.567c-8.611,-0 -15.655,6.653 -15.655,16.829c-0,9.393 7.044,16.829 16.437,16.829c7.437,0 12.133,-4.696 13.699,-7.436l-5.48,-3.914c-1.957,2.74 -4.305,4.697 -8.219,4.697c-3.913,-0 -6.262,-1.566 -8.219,-5.088l22.309,-9.393l-0.783,-1.957Zm-22.7,5.479c0,-6.262 5.088,-9.784 8.611,-9.784c2.739,-0 5.479,1.565 6.262,3.522l-14.873,6.262Zm-18.394,16.047l7.436,-0l-0,-48.923l-7.436,0l-0,48.923Zm-11.742,-28.571c-1.957,-1.957 -5.088,-3.914 -9.002,-3.914c-8.219,0 -16.046,7.436 -16.046,16.83c-0,9.393 7.436,16.437 16.046,16.437c3.914,0 7.045,-1.956 8.611,-3.913l0.391,-0l0,2.348c0,6.262 -3.522,9.784 -9.002,9.784c-4.305,0 -7.436,-3.131 -8.219,-5.87l-6.262,2.739c1.957,4.306 6.654,9.785 14.873,9.785c8.61,-0 15.655,-5.088 15.655,-17.221l-0,-29.745l-7.045,0l0,2.74Zm-8.61,23.091c-5.088,0 -9.393,-4.305 -9.393,-10.175c-0,-5.871 4.305,-10.176 9.393,-10.176c5.088,-0 9.002,4.305 9.002,10.176c-0,5.87 -3.914,10.175 -9.002,10.175Zm95.496,-43.443l-17.612,0l0,48.923l7.436,-0l0,-18.395l10.176,-0c8.219,-0 16.047,-5.871 16.047,-15.264c-0,-9.393 -7.828,-15.264 -16.047,-15.264Zm0.392,23.483l-10.568,0l0,-16.829l10.568,-0c5.479,-0 8.61,4.696 8.61,8.219c-0.391,4.305 -3.522,8.61 -8.61,8.61Zm45.008,-7.045c-5.479,0 -10.958,2.349 -12.915,7.436l6.653,2.74c1.566,-2.74 3.914,-3.522 6.654,-3.522c3.913,-0 7.436,2.348 7.827,6.262l0,0.391c-1.174,-0.783 -4.305,-1.957 -7.436,-1.957c-7.045,0 -14.09,3.914 -14.09,10.959c0,6.653 5.871,10.958 12.133,10.958c5.088,0 7.436,-2.348 9.393,-4.696l0.392,-0l-0,3.914l7.044,-0l0,-18.786c-0.782,-8.611 -7.436,-13.699 -15.655,-13.699Zm-0.783,27.005c-2.348,0 -5.87,-1.174 -5.87,-4.305c-0,-3.914 4.305,-5.088 7.827,-5.088c3.131,0 4.697,0.783 6.654,1.566c-0.783,4.696 -4.697,7.827 -8.611,7.827Zm41.095,-25.831l-8.219,21.135l-0.391,-0l-8.61,-21.135l-7.828,0l12.915,29.745l-7.436,16.438l7.436,0l19.961,-46.183l-7.828,0Zm-65.751,31.311l7.436,-0l-0,-48.923l-7.436,0l-0,48.923Z" style="fill:#fff;fill-rule:nonzero;"/><g><g><g><path d="M24.453,32.65c-1.174,1.565 -1.565,3.131 -1.565,5.87l-0,86.104c-0,2.348 0.782,4.305 1.956,5.479l0.392,0.391l48.531,-48.531l-0,-0.783l-49.314,-48.53Z" style="fill:#5bc9f4;fill-rule:nonzero;"/><path d="M89.422,98.401l-16.047,-16.046l0,-1.175l16.047,-16.046l0.391,0.391l19.178,10.959c5.479,3.131 5.479,8.219 -0,11.35l-19.569,10.567Z" style="fill:url(#_Linear1);fill-rule:nonzero;"/><path d="M89.813,98.01l-16.438,-16.438l-48.922,48.922c1.957,1.957 4.697,1.957 8.219,0.392l57.141,-32.876" style="fill:url(#_Linear2);fill-rule:nonzero;"/><path d="M89.813,65.134l-57.141,-32.484c-3.522,-1.957 -6.262,-1.566 -8.219,0.391l48.922,48.531l16.438,-16.438Z" style="fill:url(#_Linear3);fill-rule:nonzero;"/></g></g></g><g><path d="M148.911,54.175l-3.131,0l0,-23.482l7.828,-0c1.957,-0 3.522,0.782 5.088,1.957c1.565,1.174 2.348,3.131 2.348,5.087c0,1.957 -0.783,3.523 -2.348,5.088c-1.566,1.174 -3.131,1.957 -5.088,1.957l-5.088,0l0,9.393l0.391,0Zm0,-12.524l5.088,0c1.175,0 2.349,-0.391 3.131,-1.174c0.783,-0.783 1.175,-1.957 1.175,-2.74c-0,-1.174 -0.392,-1.956 -1.175,-2.739c-0.782,-0.783 -1.956,-1.174 -3.131,-1.174l-5.088,-0l0,7.827Z" style="fill:#fff;fill-rule:nonzero;stroke:#fff;stroke-width:0.78px;"/><path d="M184.136,51.044c-2.349,2.349 -5.088,3.523 -8.611,3.523c-3.522,-0 -6.262,-1.174 -8.61,-3.523c-2.348,-2.348 -3.522,-5.088 -3.522,-8.61c-0,-3.522 1.174,-6.262 3.522,-8.61c2.348,-2.349 5.088,-3.523 8.61,-3.523c3.523,0 6.262,1.174 8.611,3.523c2.348,2.348 3.522,5.088 3.522,8.61c-0,3.522 -1.174,6.262 -3.522,8.61Zm-14.873,-1.957c1.566,1.566 3.914,2.74 6.262,2.74c2.349,0 4.697,-0.783 6.262,-2.74c1.566,-1.565 2.74,-3.913 2.74,-6.653c-0,-2.74 -0.783,-5.088 -2.74,-6.653c-1.565,-1.566 -3.913,-2.74 -6.262,-2.74c-2.348,-0 -4.696,0.783 -6.262,2.74c-1.565,1.565 -2.739,3.913 -2.739,6.653c-0,2.74 0.782,5.088 2.739,6.653Z" style="fill:#fff;fill-rule:nonzero;stroke:#fff;stroke-width:0.78px;"/><path d="M191.963,54.567l0,-23.874l8.61,-0c1.957,-0 3.523,0.782 4.697,1.957c1.174,1.174 1.957,2.739 1.957,4.696c-0,1.174 -0.391,1.957 -0.783,3.131c-0.391,0.783 -1.174,1.566 -2.348,1.957c1.174,0.391 1.957,1.174 2.74,1.957c0.782,0.783 1.174,1.957 1.174,3.522c-0,1.957 -0.783,3.523 -1.957,4.697c-1.566,1.174 -3.131,1.957 -5.088,1.957l-9.002,-0Zm2.74,-13.699l5.479,0c1.174,0 1.957,-0.391 2.74,-1.174c0.783,-0.782 1.174,-1.565 1.174,-2.348c-0,-0.783 -0.391,-1.957 -1.174,-2.74c-0.783,-0.782 -1.566,-1.174 -2.74,-1.174l-5.479,0l-0,7.436Zm-0,10.568l6.262,-0c1.174,-0 1.957,-0.392 2.74,-1.174c0.782,-0.783 1.174,-1.566 1.174,-2.74c-0,-0.783 -0.392,-1.957 -1.174,-2.74c-0.783,-0.783 -1.566,-1.174 -2.74,-1.174l-5.871,0l-0.391,7.828Z" style="fill:#fff;fill-rule:nonzero;stroke:#fff;stroke-width:0.78px;"/><rect x="211.923" y="30.693" width="3.131" height="23.483" style="fill:#fff;fill-rule:nonzero;stroke:#fff;stroke-width:0.78px;"/><path d="M234.232,33.432l-10.567,0l-0,7.436l9.784,0l0,2.74l-9.784,0l-0,7.436l10.567,0l0,3.131l-13.698,0l-0,-23.482l13.698,-0l0,2.739Z" style="fill:#fff;fill-rule:nonzero;stroke:#fff;stroke-width:0.78px;"/><path d="M238.929,54.175l-0,-23.482l7.827,-0c1.957,-0 3.523,0.782 5.088,1.957c1.566,1.174 2.348,3.131 2.348,5.087c0,1.566 -0.391,3.131 -1.565,4.306c-1.174,1.174 -2.348,1.956 -3.914,2.348l6.654,9.393l-3.523,-0l-6.262,-9.393l-3.522,-0l-0,9.784l-3.131,0Zm2.348,-12.524l5.088,0c1.174,0 2.348,-0.391 3.131,-1.174c0.783,-0.783 1.174,-1.957 1.174,-3.131c-0,-1.174 -0.391,-1.957 -1.174,-2.74c-0.783,-0.782 -1.957,-1.174 -3.131,-1.174l-5.088,0l-0,8.219Z" style="fill:#fff;fill-rule:nonzero;stroke:#fff;stroke-width:0.78px;"/><path d="M256.932,54.175l0,-3.131l12.524,-17.612l-11.741,0l-0,-2.739l15.655,-0l-0,3.131l-12.524,17.612l12.524,-0l-0,2.739l-16.438,0Z" style="fill:#fff;fill-rule:nonzero;stroke:#fff;stroke-width:0.78px;"/><path d="M284.329,54.175l-0,-3.131l12.524,-17.612l-12.133,0l-0,-2.739l15.655,-0l0,3.131l-12.524,17.612l12.524,-0l0,2.739l-16.046,0Z" style="fill:#fff;fill-rule:nonzero;stroke:#fff;stroke-width:0.78px;"/></g></g><defs><linearGradient id="_Linear1" x1="0" y1="0" x2="1" y2="0" gradientUnits="userSpaceOnUse" gradientTransform="matrix(-94.6229,1.1588e-14,-1.1588e-14,-94.6229,105.425,81.7675)"><stop offset="0" style="stop-color:#fee000;stop-opacity:1"/><stop offset="0.19" style="stop-color:#fccf0b;stop-opacity:1"/><stop offset="0.55" style="stop-color:#fab318;stop-opacity:1"/><stop offset="0.83" style="stop-color:#f9a21b;stop-opacity:1"/><stop offset="1" style="stop-color:#f99b1c;stop-opacity:1"/></linearGradient><linearGradient id="_Linear2" x1="0" y1="0" x2="1" y2="0" gradientUnits="userSpaceOnUse" gradientTransform="matrix(-88.998,88.9976,-88.9976,-88.998,80.8538,90.5313)"><stop offset="0" style="stop-color:#ef4547;stop-opacity:1"/><stop offset="1" style="stop-color:#c6186d;stop-opacity:1"/></linearGradient><linearGradient id="_Linear3" x1="0" y1="0" x2="1" y2="0" gradientUnits="userSpaceOnUse" gradientTransform="matrix(72.6646,72.6646,-72.6646,72.6646,-8.63883,-16.6846)"><stop offset="0" style="stop-color:#279e6f;stop-opacity:1"/><stop offset="0.32" style="stop-color:#4dab6d;stop-opacity:1"/><stop offset="0.74" style="stop-color:#6aba6a;stop-opacity:1"/><stop offset="1" style="stop-color:#74c169;stop-opacity:1"/></linearGradient></defs></svg>