<?xml version="1.0" encoding="utf-8"?>
<!-- Generator: Adobe Illustrator 28.1.0, SVG Export Plug-In . SVG Version: 6.00 Build 0)  -->
<svg version="1.1" id="SvgjsSvg46940" xmlns:svgjs="http://svgjs.com/svgjs"
	 xmlns="http://www.w3.org/2000/svg" xmlns:xlink="http://www.w3.org/1999/xlink" x="0px" y="0px" viewBox="0 0 4096 1549.8"
	 style="enable-background:new 0 0 4096 1549.8;" xml:space="preserve">
<style type="text/css">
	.st0{fill:#FFFFFF;}
	.st1{fill:#12263A;}
</style>
<g id="SvgjsG14744" transform="translate(7.105427357601002e-15, 7.105427357601002e-15) scale(1.2003629354988405)">
	<path class="st0" d="M452,273.3h565.9v565.9c0,98.7-80,178.7-178.7,178.7H273.3V452C273.3,353.3,353.3,273.3,452,273.3z"/>
</g>
<g id="SvgjsG14745" transform="translate(21.212220900053484, 21.212220900053467) scale(0.7761107563902067)">
	<path class="st1" d="M1233.9,779.7v164h-180.9v399.8h-164V943.6H708.2v-164h180.9V598.8h164v180.9 M736.1,915.8h180.9v399.7h108.3
		V915.8h180.9V807.5h-180.9V626.6H916.9v180.9H736.1V915.8z"/>
</g>
<g id="SvgjsG14746" transform="translate(304.3353981219206, 59.317655338454124) scale(1)">
	<path class="st0" d="M1329.9,483.4c0,22-10.4,39.8-31.2,53.4c-20.8,13.7-47.9,20.5-81.4,20.5c-7.7,0-12.4-0.3-14.1-0.9
		c-1.6-0.6-2.5-2.1-2.5-4.5V422c0-2.9,1.6-4.8,4.9-5.7c3.3-0.9,10.9-1.3,22.7-1.3c31.1,0,55.8,6.5,74.1,19.6
		C1320.7,447.5,1329.9,463.8,1329.9,483.4z M1144.7,399.3h-11.5c-6.6,0-9.8,3.2-9.8,9.8c0,3.6,0.6,6.3,1.9,8.3
		c1.3,1.9,2.6,3,3.8,3.3c1.2,0.3,2.8,0.4,4.9,0.4h16.5c3,0,5.3,0.7,6.9,2c1.6,1.3,2.5,2.7,2.7,4c0.1,1.3,0.2,3.2,0.2,5.6v243.9
		c0,3.9-0.8,6.7-2.5,8.6c-1.6,1.9-5,3.2-10.1,3.8c-2.1,0.3-4.3,0.5-6.6,0.7c-2.4,0.1-4.2,0.3-5.6,0.4s-2.8,0.3-4.5,0.4
		c-1.6,0.1-2.8,0.3-3.6,0.4c-0.7,0.1-1.6,0.4-2.7,0.7c-1,0.3-1.7,0.7-2.2,1.1l-1.6,1.6c-0.6,0.6-1,1.3-1.1,2
		c-0.1,0.7-0.3,1.6-0.4,2.7c-0.1,1-0.2,2.1-0.2,3.3c0,7.1,3.1,10.7,9.3,10.7l8.9-0.9c5.9-0.3,13.9-0.7,24-1.1
		c10.1-0.4,20.2-0.7,30.3-0.7c9.8,0,19.7,0.2,29.8,0.7c10.1,0.4,18.1,0.8,24.1,1.1l8.9,0.9c5.9,0,8.9-3.6,8.9-10.7v-0.4
		c0-5.6-2.1-9-6.3-10.2c-1.8-0.6-16.2-1.5-43.1-2.7c-5.7-0.3-9.5-1.7-11.4-4.2c-1.9-2.5-2.9-6.4-2.9-11.8v-92.6
		c0-4.8,1.9-7.1,5.8-7.1h13.8c46.3,0,80.4-6.2,102.4-18.7c13.3-7.1,24.3-17,32.9-29.6c8.6-12.6,13-27.1,13.3-43.4v-0.4
		c0-23.5-8.7-43.1-26.2-59.2c-20.5-18.4-50.1-27.5-89-27.5c-10.1,0-26.9,0.8-50.3,2.5C1179.2,398.5,1159.9,399.3,1144.7,399.3z
		 M1484.9,538.6c-0.9,0-1.3-0.7-1.3-2.2v-18.2c0-6.2-1.8-9.3-5.4-9.3c-0.6,0-1.5,0.3-2.7,0.9c-0.6,0.3-1,0.4-1.3,0.4
		c-8.9,4.4-18.8,9.3-29.8,14.7c-12.2,5.7-18.2,9-18.2,10.2c0.3,1.2,0.9,2.2,1.8,3.1c3.3,2.4,6.8,4.9,10.6,7.6
		c3.9,2.7,6.5,4.5,7.8,5.3c1.3,0.9,2.7,2,3.9,3.4c1.3,1.3,2.2,2.5,2.5,3.6s0.4,2.5,0.4,4.2v121c0,6-2.8,9.5-8.4,10.7
		c-2.1,0.6-4.8,1.1-8.3,1.6c-3.4,0.4-5.7,0.9-6.9,1.3c-1.2,0.4-2.4,1.3-3.6,2.7c-1.2,1.3-1.8,3.3-1.8,6c0,5.1,2.5,7.6,7.5,7.6
		c0.3,0,1.3-0.1,2.9-0.2s3.9-0.4,6.7-0.7s6.1-0.6,9.8-0.9c3.7-0.3,8-0.5,12.7-0.7s9.5-0.2,14.2-0.2c4.5,0,9.2,0.1,14,0.2
		c4.9,0.1,9.2,0.4,12.7,0.7c3.5,0.3,6.8,0.6,9.8,0.9c3,0.3,5.3,0.5,6.9,0.7s2.6,0.2,2.9,0.2c4.1,0,6.2-3,6.2-8.9
		c0-4.1-1.3-6.7-3.8-7.7c-2.5-1-8.3-1.9-17.6-2.5c-5-0.3-9-0.6-12-0.9c-7.4-0.6-11.1-5.2-11.1-13.8v-1.8v-109c0-3.9,0.6-6.7,1.7-8.5
		c2.1-3,6.9-6.9,14.3-11.5c7.4-4.8,14.4-7.1,20.9-7.1c5.3,0,10.3,1.9,14.9,5.8c4.6,3.8,8.6,5.7,12.2,5.7c2.4,0,4.6-0.4,6.7-1.3
		c2.1-0.8,4.5-2.4,7.3-4.6c2.8-2.2,4.4-3.4,4.7-3.4l3.1-2.7c2.1-1.8,3.6-3.1,4.5-4c0.9-0.9,1.9-2.2,3.1-4c1.2-1.7,1.8-3.5,1.8-5.3
		V527c0-6-3.9-10.8-11.6-14.4c-7.7-3.7-15.7-5.6-24.1-5.6c-5.3,0-9.8,0.6-13.3,1.8c-3.6,1.2-9.2,4.3-16.9,9.3
		c-7.7,5.1-14.7,9.8-20.9,14C1488.4,536.4,1485.2,538.6,1484.9,538.6z M1670.1,655.2v21.4c0,5.1-0.7,8.8-2,11.3
		c-1.3,2.5-4.6,4.2-10,5.1c-11.3,1.5-17.9,2.7-19.8,3.6c-1.9,0.9-2.9,3.9-2.9,8.9c0,5.1,2.4,7.6,7.1,7.6c0.3,0,1.2-0.1,2.7-0.2
		c1.4-0.1,3.5-0.4,6.2-0.7s5.6-0.6,8.7-0.9c3.1-0.3,6.9-0.5,11.3-0.7s8.8-0.2,12.9-0.2c4.2,0,8.4,0.1,12.7,0.2s8,0.4,11.3,0.7
		c3.3,0.3,6.3,0.6,8.9,0.9s4.7,0.5,6.2,0.7c1.5,0.1,2.4,0.2,2.7,0.2c3.6,0,5.4-3.3,5.4-9.8c0-3.5-1.2-5.7-3.6-6.6
		c-2.4-0.9-8-1.9-16.9-3.1c-5.1-0.6-8-3.4-8.9-8.5c-0.8-5-1.3-21.6-1.3-49.8V620c0-16.3,0.2-32.7,0.7-49.2
		c0.4-16.5,0.9-29.6,1.5-39.3l0.4-14.7c0-5-2-7.5-6.2-7.5h-0.4c-0.3,0-17.1,8-50.3,24c-0.6,0.3-1.6,0.7-3.1,1.3
		c-1.5,0.6-2.7,1.1-3.6,1.6c-0.9,0.4-1.9,1-2.9,1.6c-1,0.6-1.8,1.3-2.2,2.2c-0.4,0.9-0.7,1.8-0.7,2.7c0,2.4,1.9,4.3,5.8,5.8
		c16,6.5,25.1,10.4,27.3,11.8c2.2,1.3,3.4,3.6,3.4,6.9c0,1.5-0.1,6-0.2,13.6s-0.2,18-0.2,31.3V655.2z M1674.6,428.7
		c0,6.3,2.1,11.3,6.3,15.3c4.1,4,9.3,6,15.6,6c6.2,0,11.5-2.1,15.8-6.3c4.3-4.2,6.5-9.3,6.5-15.6c0-5.7-2.2-10.5-6.5-14.7
		c-4.3-4.2-9.5-6.3-15.3-6.3c-6,0-11.2,2.1-15.6,6.3C1676.8,417.7,1674.6,422.7,1674.6,428.7z M1793.6,616.5
		c0,18.4,2.8,34.5,8.3,48.5c5.4,14,12.7,24.6,21.7,32.1c9.1,7.4,18.4,12.9,28.1,16.5c9.6,3.6,19.5,5.4,29.6,5.4
		c15.8,0,30.8-3.6,45-10.9c14.2-7.2,26.1-17.1,35.6-29.6c2.4-3,3.6-5.4,3.6-7.1c0-4.5-2.5-6.7-7.6-6.7c-2.7,0-6,2.1-10.2,6.3
		c-15.4,14.8-33.5,22.3-54.3,22.3c-10.7,0-20.3-2.2-29-6.5c-8.6-4.3-15.2-9.3-19.8-15.1c-4.5-5.8-8.4-12.1-11.5-18.9
		c-3.1-6.9-5.1-12.3-6-16.5s-1.3-7.1-1.3-8.9c0-1.2,0.6-2,1.8-2.6c1.5-0.9,33.2-12.1,95.2-33.4c1.2-0.3,4.1-1.2,8.7-2.7
		c4.5-1.4,8-2.6,10.4-3.5c2.4-0.9,5.2-2.2,8.5-3.8c3.3-1.6,5.6-3.5,7.1-5.6c1.5-2.1,2.2-4.5,2.2-7.1v-0.9c0-3.6-1.2-6.9-3.6-9.8
		c-9.2-12.4-20.8-22.9-34.7-31.1c-13.9-8.3-28.4-12.5-43.6-12.5c-23.5,0-43.3,9.4-59.6,28.1C1801.8,560.8,1793.6,585.6,1793.6,616.5
		z M1915.6,569.3c0,2-1.3,3.8-4,5.3c-0.9,0.3-15.2,5.9-43,16.7c-27.7,10.9-41.9,16.2-42.5,16.2c-1.5,0-2.2-1.1-2.2-3.5
		c0-20.2,3.9-36,11.8-47.7c7.8-11.5,18.5-17.3,31.8-17.3c11.2,0,22.1,4.1,32.5,12.2C1910.3,559.4,1915.6,565.5,1915.6,569.3z
		 M2029.2,569.7c0,27.3,16.8,45.9,50.3,55.7l10.7,2.2c7.1,1.8,12.3,3.4,15.6,4.7c3.3,1.3,7.5,3.4,12.9,6.3
		c5.4,2.8,9.3,6.3,11.8,10.6c2.5,4.3,3.8,9.3,3.8,14.9c0,8.9-3.6,16.2-10.6,21.8c-7.1,5.7-15.9,8.5-26.3,8.5
		c-11.8,0-22.8-3-32.7-8.9c-9.9-5.9-16.2-11.8-18.9-17.8c-1.5-3.3-2.4-7.4-2.7-12.7c-0.3-5.2-0.9-9.2-1.8-11.8c-0.9-2.7-3-4-6.2-4
		c-3.3,0-5.4,0.9-6.5,2.7s-1.6,5.6-1.6,11.5c0,1.5,0.1,5.2,0.2,11.1c0.1,6,0.2,11.3,0.2,16.1c0,6.5,1.8,11.7,5.4,15.6
		c6.2,7.4,15.3,13,27.3,16.9c12.1,3.9,23.8,5.8,35.4,5.8c21.1,0,37.9-6.3,50.6-18.7c12.6-12.5,18.9-26.7,18.9-42.7
		c0-13.3-4.6-25.4-13.8-36c-3.2-3.9-6.6-7.1-10.2-9.8c-3.6-2.7-7.7-4.8-12.2-6.6c-4.6-1.8-8.6-3.1-11.8-4c-3.3-0.9-7.8-2-13.8-3.4
		c-6-1.3-10.4-2.5-13.3-3.4c-24.1-6.8-36-17.8-36-32.9c0-7.1,2.8-12.9,8.4-17.3c5.7-4.5,12.4-6.7,20.5-6.7c7.1,0,14.3,1.9,21.6,5.6
		c7.2,3.7,12.5,7.8,15.8,12.2c1.5,2.1,2.8,5.2,4,9.4c1.2,4.2,2.5,7.3,3.8,9.5s3.4,3.4,6.4,3.4c7.1,0,10.7-2.4,10.7-7.1
		c0-0.6-0.5-3.6-1.6-9.1c-1-5.5-2.3-12.2-3.8-20.3c-1.5-8-2.7-14.2-3.6-18.7c-1.2-5.7-3.6-8.5-7.1-8.5c-1.8,0-3.9,0.7-6.3,2.2
		c-2.4,1.5-4.2,2.2-5.4,2.2c-0.3,0-1.4-0.1-3.4-0.4c-1.9-0.3-4.5-0.7-8-1.1c-3.4-0.4-7.2-0.7-11.4-0.7c-19.6,0-35.4,5.4-47.4,16.2
		C2035.2,543,2029.2,555.5,2029.2,569.7z M2232.7,543.9h14.7c2.1,0,3.1,1.3,3.1,4c0,2.7-0.2,18.3-0.8,46.9
		c-0.6,28.7-0.9,46.7-0.9,54.1c0,6.6,0.1,11.5,0.4,14.7c1.4,19.3,6.7,33.4,15.8,42.1c9,8.8,19.1,13.2,30,13.2
		c18.4,0,39.6-13.7,63.7-41c2.1-3.3,3.1-5.8,3.1-7.6c0-2.1-0.8-4-2.5-5.8c-1.6-1.7-3.6-2.6-6-2.6c-2.7,0-6.6,2.2-11.8,6.9
		c-5.2,4.6-11.2,9.2-18,13.8c-6.9,4.6-13.4,6.9-19.6,6.9c-15.8,0-23.6-11.2-23.6-33.8c0-2.4,0.1-6.4,0.2-12c0.1-5.7,0.3-16.7,0.4-33
		c0.1-16.3,0.2-36.8,0.2-61.4c0-3,1.5-4.5,4.5-4.5h53.4c3.9,0,6.5-0.7,8-2.2c2.7-3.3,4-7.7,4-13.3c0-5.7-3.9-8.5-11.5-8.5
		c-0.3,0-0.9-0.1-1.8-0.2c-0.9-0.1-1.6-0.2-2.2-0.2h-41c-6,0-8.9-3-8.9-8.9c0-2.1,0.1-7.4,0.2-16.1c0.1-8.6,0.2-13.9,0.2-16
		c0-5-2.1-7.5-6.3-7.5c-2.7,0-5.7,2.8-8.9,8.4c-7.1,11.9-14.7,22.2-22.6,31c-8,8.7-14.2,15-18.5,18.7c-4.3,3.6-6.5,6.4-6.5,8.2
		C2223.4,542,2226.5,543.9,2232.7,543.9z M2547.9,688.5c-9.5,0-19.1-0.9-28.9-2.7c-6.3-1.2-10.6-3.1-13-5.5
		c-2.4-2.5-3.6-6.6-3.6-12.3V436.3c0-6,1.9-9.8,5.6-11.6c3.7-1.8,12-2.7,24.7-2.7c37.4,0,68.9,9.4,94.8,28.1
		c17.5,13,31,30,40.5,50.9c9.5,20.9,14.2,42.7,14.2,65.2c0,38-13.3,67.8-40.1,89.6C2615.5,677.7,2584.1,688.5,2547.9,688.5z
		 M2416.2,412.2c0,7.1,2.8,10.6,8.5,10.6h7.5c11.9,0.3,19.8,1.3,23.8,3.1c4,1.8,6,6.4,6,13.8v230.5c0,5.7-0.8,9.8-2.5,12.2
		c-1.6,2.5-5,3.9-10.1,4.2c-2.7,0.3-5.7,0.4-9.3,0.4s-6.3,0.1-8,0.2c-1.8,0.1-3.8,0.3-6,0.4c-2.2,0.1-3.9,0.4-4.9,0.9
		c-1,0.4-2.1,1-3.1,1.8s-1.7,1.6-2,2.7c-0.3,1-0.4,2.5-0.4,4.2c0,8.6,3.6,12.9,10.7,12.9h129c16.3,0,29.8-0.9,40.4-2.7
		c34.8-6.6,65.4-24.2,92.2-52.9c26.7-28.8,40-62.3,40-100.6c0-30.2-8.3-56.8-24.9-79.6c-16.6-22.9-37.2-40.1-61.9-51.7
		c-28.7-13.3-72.8-20-132.2-20h-82.7C2419.6,402.8,2416.2,406,2416.2,412.2z M2978.5,476.7c-8,0-12.1,3.3-12.1,9.8v14.2
		c0,4.5-1,7.9-3.1,10.3c-2.1,2.3-4.1,3.7-6.2,4.2c-2.1,0.4-4.8,0.7-8,0.7h-69.8c-6,0-8.9-3.4-8.9-10.2v-68.5c0-5.7,0.8-10,2.5-13
		c1.6-3,5.4-4.5,11.4-4.5h85.9c6,0,10.2,1.3,12.9,4c1.8,2.1,9.4,14.8,22.7,38.3c3.9,5.4,8.2,8,12.9,8c6.3,0,9.4-2.2,9.4-6.7
		c0-0.6-0.8-4.4-2.5-11.3c-1.6-7-3.6-15.5-5.8-25.6c-2.2-10.1-3.9-17.9-5.1-23.6c-1.5-5-4.8-7.5-9.8-7.5h-209.6
		c-5.9,0-8.9,3.4-8.9,10.2c0,2.7,0.4,4.8,1.3,6.3c0.9,1.5,2.4,2.6,4.4,3.4c2.1,0.7,4.1,1.3,6,1.6c1.9,0.3,4.8,0.5,8.7,0.9
		c3.8,0.2,7.1,0.5,9.8,0.9c5.4,0.8,8.8,1.7,10.3,2.6c1.5,0.9,2.2,3,2.2,6.3v237.6c0,9.5-3.4,15.5-10.2,17.8c-3.6,1.2-8,2.8-13.3,4.9
		c-9.5,3.6-15.4,6.1-17.8,7.6c-2.4,1.5-3.6,3.9-3.6,7.1c0,2.1,1,4.8,2.9,8.3c1.9,3.4,4.6,5.1,8.2,5.1c0.6,0,6.8-0.9,18.5-2.7
		c11.8-1.8,24.4-2.7,38-2.7h156.7c4.8,0,8.1-0.6,10-1.8c1.9-1.2,3.2-3.6,3.8-7.1c9.2-40.6,13.8-62.2,13.8-64.9V636
		c0-3.3-0.7-5.8-2.4-7.6c-1.6-1.8-3.5-2.6-5.6-2.6c-1.2,0-2.7,0.4-4.5,1.3c-2.4,1.5-7.5,9.5-15.6,23.8s-13.3,22.6-16,24.7
		c-3.9,3-13.2,5.4-28.1,7.1c-14.8,1.8-27.3,2.7-37.4,2.7c-15.1,0-29.3-1-42.7-3.1c-4.2-0.5-7.4-1.8-9.6-3.7c-2.2-1.9-3.6-3.9-4-5.8
		c-0.4-1.9-0.7-4.5-0.7-7.8V560.4c0-4.2,0.6-7.6,1.8-10.2c1.2-2.7,3.1-4.5,5.6-5.6c2.5-1,4.8-1.7,6.9-2c2-0.3,4.7-0.4,8-0.4h62.8
		c8,0,12,3.4,12,10.2v24.5c0,6.6,4,9.8,12.1,9.8c8.6,0,12.9-4.3,12.9-13v-84.1C2991.3,481,2987,476.7,2978.5,476.7z M3109,396.2
		c-8.9,0-13.3,3.1-13.3,9.3c0,3,1.3,5.5,3.7,7.6c2.5,2.1,5.8,4,9.8,5.8c4,1.7,6.5,2.9,7.4,3.5c2.6,1.8,4.9,4.6,6.9,8.5
		c1.9,3.9,5.8,11.9,11.6,24.3c5.7,12.3,13,27.5,21.7,45.6c8.8,18.1,23.3,45.9,43.6,83.2c20.3,37.4,43.9,79.4,70.5,126.4
		c3.6,6,7.4,8.9,11.6,8.9s8-3,11.5-8.9c28.2-51.6,52.6-100.2,73.4-145.7c20.8-45.6,35.4-78.6,43.9-99.3
		c8.4-20.6,14.3-32.7,17.6-36.3c3.9-4.2,8.8-6.9,14.9-8.3c6.1-1.3,10.9-2.5,14.4-3.7c3.6-1.2,5.4-4,5.4-8.5
		c0-8.3-3.4-12.4-10.2-12.4c-0.9,0-3.3,0.1-7.1,0.4s-9.2,0.6-16.2,0.9c-7,0.3-14.6,0.4-22.9,0.4c-8,0-15.6-0.1-22.7-0.4
		c-7.1-0.3-12.7-0.6-16.7-0.9c-4-0.3-6.4-0.4-7.3-0.4c-6.6,0-9.8,3.9-9.8,11.5c0,4.8,1.5,7.8,4.5,9.2c3,1.3,7.1,2,12.7,2
		s9.6,0.4,12.3,1.3c6.8,2.4,10.2,6.9,10.2,13.4c0,1.5-0.9,4.8-2.7,10.2c-24.9,67.4-55.3,133.5-91.2,198.5c-1.5,2.6-3.1,3.9-4.9,3.9
		s-3.3-0.6-4.5-1.7c-1.4-1.8-7.3-11.7-17.6-29.6c-10.2-17.9-23.8-43.6-40.9-77s-32.8-65.9-47-97.7c-1.8-3.5-2.7-6.6-2.7-9.3
		c0-6.9,4-10.7,12.1-11.6c1.2-0.2,2.9-0.5,5.3-0.8c8.9-1.2,14.6-2.5,16.9-3.8c2.4-1.3,3.6-4.5,3.6-9.6c0-5.9-2.8-8.9-8.4-8.9
		c-0.9,0-3.4,0.1-7.4,0.4s-9.6,0.6-16.9,0.9c-7.3,0.3-15.2,0.4-23.8,0.4c-8.9,0-17.2-0.1-24.9-0.4c-7.7-0.3-13.8-0.6-18.2-0.9
		C3112.6,396.4,3109.9,396.2,3109,396.2z"/>
</g>
<g id="SvgjsG14747" transform="translate(304.3953981219205, 93.22593022415013) scale(1)">
	<path class="st0" d="M1119.3,775.2v153.7h21.5V775.2H1119.3z M1199.8,816.9v112h20.6v-97.4c0.7-0.1,1.9-0.4,3.6-0.7
		c1.7-0.3,3.6-0.5,5.8-0.7c2.1-0.2,4.4-0.4,6.7-0.5c2.4-0.1,4.7-0.2,6.9-0.2c5.4,0,10.1,0.7,13.7,2.1c3.7,1.4,6.7,3.6,8.9,6.8
		c2.2,3.1,3.8,7.1,4.8,12.2c0.9,5,1.4,11,1.4,18.2v60.3h20.6v-64.8c0-7.8-0.7-15-2.2-21.5c-1.5-6.5-4-12.1-7.7-16.8
		c-3.6-4.6-8.4-8.3-14.5-10.9c-6-2.5-13.6-3.9-22.9-3.9c-10.2,0-19.2,0.7-27,2C1210.8,814.5,1204.5,815.7,1199.8,816.9z
		 M1349.3,816.9v112h20.6v-97.4c0.7-0.1,1.9-0.4,3.6-0.7c1.7-0.3,3.6-0.5,5.7-0.7s4.4-0.4,6.8-0.5s4.7-0.2,6.9-0.2
		c5.5,0,10.1,0.7,13.8,2.1c3.7,1.4,6.6,3.6,8.9,6.8c2.2,3.1,3.8,7.1,4.8,12.2c1,5,1.5,11,1.5,18.2v60.3h20.6v-64.8
		c0-7.8-0.7-15-2.2-21.5c-1.5-6.5-4-12.1-7.7-16.8c-3.6-4.6-8.5-8.3-14.5-10.9c-6.1-2.5-13.7-3.9-22.9-3.9c-10.2,0-19.2,0.7-27,2
		C1360.3,814.5,1354,815.7,1349.3,816.9z M1600.5,871.3c0-9.1-1.3-17.3-3.9-24.8c-2.7-7.4-6.4-13.8-11.2-19.1
		c-4.8-5.4-10.5-9.5-17.2-12.4c-6.6-2.8-13.8-4.3-21.7-4.3c-7.9,0-15.1,1.5-21.7,4.3c-6.7,2.9-12.4,7-17.2,12.4
		c-4.8,5.3-8.6,11.7-11.2,19.1c-2.6,7.5-3.9,15.7-3.9,24.8c0,9.2,1.3,17.4,3.9,24.8c2.7,7.4,6.4,13.8,11.2,19.1
		c4.8,5.4,10.5,9.5,17.2,12.4c6.6,2.8,13.8,4.3,21.7,4.3c7.8,0,15-1.5,21.7-4.3c6.7-2.9,12.4-7,17.2-12.4
		c4.8-5.3,8.6-11.7,11.2-19.1C1599.2,888.7,1600.5,880.5,1600.5,871.3z M1579,871.3c0,13-2.9,23.3-8.7,30.9
		c-5.9,7.6-13.8,11.4-23.8,11.4s-18-3.8-23.9-11.4c-5.8-7.6-8.7-17.9-8.7-30.9c0-13,2.9-23.4,8.7-31c5.9-7.6,13.8-11.4,23.9-11.4
		s17.9,3.8,23.8,11.4C1576.1,847.9,1579,858.3,1579,871.3z M1743.2,928.9h17.9c6.8-15.3,13.5-32.6,20-52.1
		c6.5-19.5,12.7-40.6,18.4-63.2h-21.3c-1.5,6.9-3.2,14.5-5.3,22.6s-4.3,16.2-6.7,24.4c-2.3,8.1-4.8,15.9-7.1,23.5
		c-2.5,7.6-4.8,14.1-7,19.7c-2.5-6.9-5-14.3-7.4-22c-2.5-7.7-4.8-15.6-7-23.5c-2.2-7.9-4.2-15.6-6.2-23.2
		c-1.9-7.7-3.6-14.8-4.9-21.4h-17.1c-1.5,6.6-3.2,13.8-5.2,21.4c-2,7.6-4.1,15.3-6.3,23.2c-2.2,8-4.5,15.8-7,23.5
		c-2.5,7.7-4.9,15.1-7.4,22c-2.2-5.6-4.5-12.1-7.1-19.7c-2.5-7.5-4.9-15.3-7.2-23.5c-2.3-8.2-4.5-16.3-6.6-24.4
		c-2-8.1-3.8-15.7-5.3-22.6h-22.2c5.7,22.6,11.9,43.7,18.4,63.2c6.6,19.5,13.2,36.9,20,52.1h18c4.1-10.6,8.5-22.8,13-36.5
		c4.6-13.7,8.8-27.9,12.7-42.7c3.9,14.7,8.1,29,12.7,42.7C1734.6,906.1,1739,918.3,1743.2,928.9z M1882.4,914
		c-8.1,0-14.5-1.4-19.3-4.3c-4.7-2.8-7.1-8-7.1-15.4c0-3.9,1-7.1,2.8-9.6c1.9-2.5,4.4-4.4,7.2-5.8c2.9-1.4,6.1-2.3,9.5-2.8
		c3.5-0.4,6.8-0.7,9.9-0.7c4.7,0,8.8,0.3,12.1,0.8c3.4,0.5,5.7,1.1,7.2,1.9v34.4c-2.5,0.6-5.7,1-9.5,1.2
		C1891.7,914,1887.4,914,1882.4,914z M1880.6,810.7c-7.2,0-13.9,0.6-20.2,1.7c-6.2,1.1-10.6,2.2-13.3,3.4l2.4,17.1
		c2.5-1,6.3-2,11.5-3c5.1-1,11-1.4,17.9-1.4c5.3,0,9.6,0.7,13,2.3c3.3,1.6,6,3.6,7.9,6.2c1.9,2.6,3.2,5.6,3.9,8.9
		c0.7,3.4,1.1,6.7,1.1,10.1v5.7c-0.6-0.1-1.6-0.3-3.1-0.6c-1.4-0.3-3.2-0.7-5.2-1c-1.9-0.4-4.1-0.7-6.3-0.9
		c-2.2-0.2-4.3-0.3-6.4-0.3c-6.5,0-12.7,0.7-18.6,2c-6,1.3-11.1,3.4-15.6,6.2c-4.4,2.8-7.9,6.5-10.5,11.1
		c-2.6,4.5-3.9,10.1-3.9,16.4c0,6.7,1.1,12.4,3.3,17.1c2.2,4.7,5.4,8.5,9.4,11.4c3.9,2.9,8.7,5,14.1,6.3c5.5,1.3,11.5,2,17.9,2
		c4.6,0,9.2-0.2,13.9-0.6c4.6-0.4,8.9-0.7,13-1.2c3.9-0.4,7.6-0.9,10.7-1.4c3.2-0.5,5.7-1,7.4-1.3v-72.1c0-6.5-0.7-12.4-2.2-17.9
		c-1.5-5.4-3.9-10.1-7.4-13.9c-3.5-3.9-8.1-7-13.8-9.1C1895.9,811.8,1889,810.7,1880.6,810.7z M2031.5,931.6c3,0,6-0.2,9.2-0.6
		c3.2-0.4,6.2-0.8,9-1.3c2.8-0.5,5.4-1,7.5-1.7c2.2-0.7,3.9-1.4,5.1-2.2l-2.9-17.3c-2.5,1.2-6,2.3-10.4,3.4c-4.4,1-9.4,1.5-14.8,1.5
		c-6.9,0-12.6-1-17.3-3c-4.7-2-8.6-4.8-11.6-8.5c-3.1-3.7-5.3-8.2-6.6-13.3c-1.4-5.2-2.2-10.9-2.2-17.1c0-13.9,3.1-24.5,9.2-31.7
		c6.1-7.3,15-10.9,26.5-10.9c4.5,0,8.9,0.4,13,1.3c4.1,0.9,7.7,2.1,10.8,3.6l4.6-17.5c-4.7-1.9-9.7-3.4-14.8-4.2
		c-5.2-0.9-10.3-1.3-15.6-1.3c-8.4,0-16.1,1.6-22.9,4.5c-6.9,3.1-12.7,7.3-17.4,12.7c-4.8,5.4-8.4,11.8-11,19.2
		c-2.5,7.4-3.9,15.5-3.9,24.4c0,8.9,1.2,16.9,3.6,24.3c2.4,7.3,6,13.6,10.7,18.9c4.8,5.4,10.7,9.5,17.8,12.4
		C2014,930.1,2022.2,931.6,2031.5,931.6z M2095.6,950.4l-3.8,16.6c0.6,0.3,1.6,0.7,3,1.1c1.4,0.4,3,0.9,4.7,1.3
		c1.7,0.4,3.4,0.7,5.2,0.9c1.8,0.1,3.5,0.3,5.1,0.3c6.1,0,11.5-0.7,16.3-2.2c4.8-1.5,9.2-3.7,13-6.9c3.8-3.1,7.3-7.1,10.5-11.8
		c3.2-4.8,6.3-10.6,9.2-17.2c7.5-17.5,14.5-36.2,21.1-56.2c6.5-20.1,12.4-41,17.7-62.7h-21.3c-3.7,16.2-7.6,31.8-11.8,47.1
		c-4.2,15.2-9,30.6-14.7,46.1c-3.5-7.5-6.9-15.3-10.2-23.5c-3.2-8.1-6.3-16.2-9.1-24.3c-2.8-8.1-5.4-16.1-7.6-23.8
		c-2.3-7.7-4.3-14.9-5.9-21.5h-22.2c5.3,20.4,12,40.6,20,60.5c8.1,19.9,16.8,38.7,26.1,56.4c-3.6,8.1-7.8,14-12.4,17.6
		c-4.6,3.6-10.9,5.4-19.1,5.4c-2.5,0-5.1-0.4-7.6-1C2099.3,951.9,2097.2,951.2,2095.6,950.4z M2222.6,970.4
		c12.9,0,22.7-3.6,29.4-10.7c6.8-7.2,10.1-18.2,10.1-33V813.6h-20.6v113.3c0,8.4-1.6,14.8-4.5,19.2c-3.1,4.3-8.1,6.6-15.2,6.6
		c-1.6,0-3.4-0.1-5.4-0.4c-1.9-0.3-3.6-0.7-5.1-1.1l-2.7,16.8c1.9,0.7,4.2,1.3,7.1,1.8C2218.6,970.2,2220.9,970.4,2222.6,970.4z
		 M2251.8,792.7c3.6,0,6.9-1.2,9.4-3.6c2.6-2.5,3.9-5.7,3.9-9.9c0-4.1-1.3-7.4-3.9-9.8c-2.5-2.5-5.7-3.6-9.4-3.6
		c-3.7,0-6.9,1.2-9.5,3.6c-2.6,2.5-3.9,5.7-3.9,9.8c0,4.2,1.3,7.4,3.9,9.9C2244.9,791.5,2248,792.7,2251.8,792.7z M2319.8,816.9v112
		h20.6v-97.4c0.7-0.1,1.9-0.4,3.6-0.7c1.7-0.3,3.6-0.5,5.8-0.7c2.2-0.2,4.4-0.4,6.8-0.5c2.3-0.1,4.6-0.2,6.9-0.2
		c5.4,0,10.1,0.7,13.8,2.1c3.6,1.4,6.6,3.6,8.9,6.8c2.2,3.1,3.8,7.1,4.8,12.2c1,5,1.4,11,1.4,18.2v60.3h20.6v-64.8
		c0-7.8-0.7-15-2.2-21.5c-1.4-6.5-4-12.1-7.6-16.8c-3.6-4.6-8.5-8.3-14.5-10.9c-6.1-2.5-13.7-3.9-22.9-3.9c-10.2,0-19.2,0.7-27.1,2
		C2330.8,814.5,2324.6,815.7,2319.8,816.9z M2508.3,914c-8.1,0-14.6-1.4-19.3-4.3c-4.8-2.8-7.1-8-7.1-15.4c0-3.9,0.9-7.1,2.8-9.6
		c1.9-2.5,4.3-4.4,7.2-5.8c2.9-1.4,6-2.3,9.5-2.8c3.5-0.4,6.8-0.7,9.9-0.7c4.7,0,8.7,0.3,12.1,0.8c3.4,0.5,5.7,1.1,7.2,1.9v34.4
		c-2.5,0.6-5.7,1-9.5,1.2C2517.6,914,2513.3,914,2508.3,914z M2506.6,810.7c-7.2,0-13.9,0.6-20.2,1.7c-6.2,1.1-10.6,2.2-13.3,3.4
		l2.5,17.1c2.5-1,6.3-2,11.5-3c5.1-1,11-1.4,17.8-1.4c5.4,0,9.7,0.7,13,2.3c3.3,1.6,6,3.6,7.8,6.2c1.9,2.6,3.3,5.6,4,8.9
		c0.7,3.4,1.1,6.7,1.1,10.1v5.7c-0.6-0.1-1.6-0.3-3.1-0.6s-3.2-0.7-5.2-1c-2-0.4-4.1-0.7-6.3-0.9c-2.2-0.2-4.3-0.3-6.4-0.3
		c-6.5,0-12.7,0.7-18.6,2c-6,1.3-11.1,3.4-15.6,6.2c-4.4,2.8-8,6.5-10.5,11.1c-2.6,4.5-3.9,10.1-3.9,16.4c0,6.7,1,12.4,3.3,17.1
		c2.2,4.7,5.4,8.5,9.3,11.4c4,2.9,8.7,5,14.2,6.3c5.4,1.3,11.5,2,17.9,2c4.6,0,9.2-0.2,13.8-0.6c4.7-0.4,9-0.7,13-1.2
		c3.9-0.4,7.5-0.9,10.7-1.4c3.2-0.5,5.7-1,7.4-1.3v-72.1c0-6.5-0.7-12.4-2.2-17.9c-1.5-5.4-3.9-10.1-7.4-13.9c-3.4-3.9-8-7-13.7-9.1
		C2521.8,811.8,2514.8,810.7,2506.6,810.7z M2760.8,871.5c0,5.9-0.6,11.4-1.8,16.5c-1.2,5.1-3.1,9.6-5.8,13.3
		c-2.6,3.8-6,6.8-10.3,8.9c-4.2,2.2-9.3,3.2-15.2,3.2c-5.7,0-10.8-0.9-15.6-2.8c-4.7-1.9-8.3-3.9-10.9-6v-72.7
		c2.1-0.6,4.8-1.1,8.3-1.6c3.5-0.4,8.3-0.6,14.5-0.6c11.1,0,20,3.6,26.7,10.9C2757.4,847.7,2760.8,858,2760.8,871.5z M2782.3,871.5
		c0-9.4-1.4-17.7-4.1-25.2c-2.8-7.4-6.6-13.8-11.7-18.9c-5-5.2-11.1-9.2-18.2-12c-7.1-2.8-15.1-4.2-24-4.2c-9.6,0-18.1,0.7-25.4,2.2
		c-7.3,1.3-13.4,2.7-18.3,3.9V970h20.6v-46.2c2.5,1.6,6.3,3.4,11.5,5.1c5.1,1.8,10.9,2.7,17.6,2.7c8.3,0,15.6-1.5,22-4.5
		c6.4-3,11.8-7.1,16.3-12.4c4.5-5.3,7.8-11.7,10.1-19.1C2781.1,888.3,2782.3,880.2,2782.3,871.5z M2872.5,914
		c-8.1,0-14.6-1.4-19.3-4.3c-4.8-2.8-7.1-8-7.1-15.4c0-3.9,0.9-7.1,2.8-9.6s4.3-4.4,7.2-5.8c2.9-1.4,6-2.3,9.5-2.8
		c3.5-0.4,6.8-0.7,9.9-0.7c4.7,0,8.7,0.3,12.1,0.8c3.4,0.5,5.7,1.1,7.2,1.9v34.4c-2.5,0.6-5.7,1-9.5,1.2
		C2881.7,914,2877.4,914,2872.5,914z M2870.7,810.7c-7.2,0-14,0.6-20.2,1.7c-6.2,1.1-10.6,2.2-13.3,3.4l2.5,17.1c2.5-1,6.3-2,11.5-3
		c5.1-1,11-1.4,17.8-1.4c5.4,0,9.7,0.7,13,2.3c3.3,1.6,5.9,3.6,7.8,6.2c1.9,2.6,3.3,5.6,4,8.9c0.7,3.4,1.1,6.7,1.1,10.1v5.7
		c-0.6-0.1-1.6-0.3-3.1-0.6c-1.5-0.3-3.2-0.7-5.2-1c-2-0.4-4.1-0.7-6.3-0.9c-2.2-0.2-4.3-0.3-6.4-0.3c-6.6,0-12.7,0.7-18.6,2
		c-6,1.3-11.1,3.4-15.6,6.2c-4.4,2.8-8,6.5-10.5,11.1c-2.6,4.5-3.9,10.1-3.9,16.4c0,6.7,1,12.4,3.3,17.1c2.2,4.7,5.4,8.5,9.3,11.4
		c4,2.9,8.7,5,14.2,6.3c5.4,1.3,11.5,2,17.9,2c4.6,0,9.2-0.2,13.8-0.6c4.7-0.4,9-0.7,13-1.2c3.9-0.4,7.5-0.9,10.7-1.4
		c3.2-0.5,5.7-1,7.4-1.3v-72.1c0-6.5-0.7-12.4-2.2-17.9c-1.5-5.4-3.9-10.1-7.4-13.9c-3.4-3.9-8-7-13.7-9.1
		C2886,811.8,2879,810.7,2870.7,810.7z M3014,811.1c-9,0-17.1,0.8-24.3,2.4c-7.3,1.5-13.3,3.2-18.2,5v110.4h20.6V832
		c1.2-0.3,3.7-0.8,7.4-1.6c3.8-0.8,7.6-1.2,11.5-1.2c5.9,0,10.7,0.4,14.5,1.2c3.7,0.8,6.5,1.5,8,2.1l3.6-17.9
		c-0.9-0.3-2.2-0.6-4.1-1c-1.9-0.4-3.9-0.7-6.1-1.1c-2.2-0.4-4.5-0.7-6.8-0.9C3017.8,811.3,3015.8,811.1,3014,811.1z M3118.2,914
		c-8.1,0-14.5-1.4-19.3-4.3c-4.7-2.8-7.1-8-7.1-15.4c0-3.9,1-7.1,2.9-9.6c1.9-2.5,4.3-4.4,7.1-5.8c2.9-1.4,6.1-2.3,9.5-2.8
		c3.5-0.4,6.8-0.7,9.9-0.7c4.8,0,8.8,0.3,12.1,0.8c3.4,0.5,5.7,1.1,7.2,1.9v34.4c-2.5,0.6-5.7,1-9.4,1.2
		C3127.5,914,3123.1,914,3118.2,914z M3116.4,810.7c-7.2,0-13.9,0.6-20.2,1.7c-6.2,1.1-10.6,2.2-13.3,3.4l2.4,17.1
		c2.5-1,6.3-2,11.5-3c5.1-1,11-1.4,17.9-1.4c5.3,0,9.6,0.7,13,2.3c3.4,1.6,6,3.6,7.9,6.2c1.9,2.6,3.2,5.6,3.9,8.9
		c0.7,3.4,1.1,6.7,1.1,10.1v5.7c-0.6-0.1-1.6-0.3-3.1-0.6c-1.4-0.3-3.2-0.7-5.2-1c-1.9-0.4-4.1-0.7-6.3-0.9
		c-2.2-0.2-4.4-0.3-6.5-0.3c-6.5,0-12.7,0.7-18.6,2c-5.9,1.3-11.1,3.4-15.6,6.2c-4.4,2.8-7.9,6.5-10.5,11.1
		c-2.6,4.5-3.9,10.1-3.9,16.4c0,6.7,1.1,12.4,3.4,17.1c2.2,4.7,5.3,8.5,9.3,11.4c3.9,2.9,8.7,5,14.1,6.3c5.5,1.3,11.5,2,18,2
		c4.5,0,9.2-0.2,13.8-0.6c4.6-0.4,8.9-0.7,13-1.2c4-0.4,7.6-0.9,10.7-1.4c3.2-0.5,5.7-1,7.4-1.3v-72.1c0-6.5-0.7-12.4-2.2-17.9
		c-1.4-5.4-3.9-10.1-7.4-13.9c-3.5-3.9-8.1-7-13.8-9.1C3131.8,811.8,3124.8,810.7,3116.4,810.7z M3262.2,756.8
		c-15.5,0-26.9,4-34.1,12.1c-7.3,8-10.9,19.5-10.9,34.3v125.8h20.6v-98.1h44.4v-17.3h-44.4v-10c0-8.9,1.9-15.9,5.7-21.1
		c3.9-5.3,10.6-7.9,20.2-7.9c4,0,7.4,0.3,10.2,1c2.8,0.7,5.1,1.3,6.7,1.9l2.8-17.8c-1.6-0.6-4.2-1.2-8-1.9
		C3271.8,757.1,3267.4,756.8,3262.2,756.8z M3324.3,928.9V813.6h-20.7v115.3H3324.3z M3313.9,792.7c3.6,0,6.8-1.2,9.4-3.6
		c2.6-2.5,3.9-5.7,3.9-9.9c0-4.1-1.3-7.4-3.9-9.8c-2.6-2.5-5.7-3.6-9.4-3.6c-3.7,0-6.9,1.2-9.5,3.6c-2.6,2.5-3.9,5.7-3.9,9.8
		c0,4.2,1.3,7.4,3.9,9.9C3307.1,791.5,3310.2,792.7,3313.9,792.7z M3421,914c-8.1,0-14.5-1.4-19.3-4.3c-4.7-2.8-7.1-8-7.1-15.4
		c0-3.9,1-7.1,2.8-9.6c1.9-2.5,4.4-4.4,7.2-5.8c2.9-1.4,6.1-2.3,9.5-2.8c3.5-0.4,6.8-0.7,9.9-0.7c4.7,0,8.8,0.3,12.1,0.8
		c3.4,0.5,5.7,1.1,7.2,1.9v34.4c-2.5,0.6-5.7,1-9.5,1.2C3430.2,914,3425.9,914,3421,914z M3419.2,810.7c-7.2,0-13.9,0.6-20.2,1.7
		c-6.2,1.1-10.6,2.2-13.3,3.4l2.4,17.1c2.5-1,6.3-2,11.5-3c5.1-1,11-1.4,17.9-1.4c5.3,0,9.6,0.7,13,2.3c3.3,1.6,6,3.6,7.9,6.2
		c1.9,2.6,3.2,5.6,3.9,8.9c0.7,3.4,1.1,6.7,1.1,10.1v5.7c-0.6-0.1-1.6-0.3-3.1-0.6c-1.5-0.3-3.2-0.7-5.2-1c-1.9-0.4-4.1-0.7-6.3-0.9
		c-2.2-0.2-4.3-0.3-6.4-0.3c-6.5,0-12.7,0.7-18.6,2c-6,1.3-11.1,3.4-15.6,6.2c-4.4,2.8-7.9,6.5-10.5,11.1
		c-2.6,4.5-3.9,10.1-3.9,16.4c0,6.7,1.1,12.4,3.3,17.1c2.2,4.7,5.4,8.5,9.4,11.4c3.9,2.9,8.7,5,14.1,6.3c5.5,1.3,11.5,2,17.9,2
		c4.6,0,9.2-0.2,13.9-0.6c4.6-0.4,8.9-0.7,13-1.2c3.9-0.4,7.6-0.9,10.7-1.4c3.2-0.5,5.7-1,7.4-1.3v-72.1c0-6.5-0.7-12.4-2.2-17.9
		c-1.5-5.4-3.9-10.1-7.4-13.9c-3.5-3.9-8.1-7-13.8-9.1C3434.5,811.8,3427.5,810.7,3419.2,810.7z"/>
</g>
</svg>
